# This file uses centimeters as units for non-parametric coordinates.

mtllib lays.mtl
g default
v -0.970988 -0.930127 0.367711
v 0.977203 -0.924976 0.331208
v -1.004885 -0.308325 0.257874
v 1.004885 -0.308325 0.257874
v -1.004885 0.308325 0.364650
v 0.982735 0.313737 0.316316
v -1.004885 0.924976 0.257874
v 1.004885 0.924976 0.257874
v -1.251253 1.383979 0.145813
v 1.105153 1.348920 0.145813
v -1.004885 0.924976 -0.257874
v 1.004885 0.924976 -0.257874
v -1.004885 0.308325 -0.151098
v 0.982735 0.313737 -0.199431
v -0.995885 -0.308325 -0.257874
v 0.995885 -0.308325 -0.257874
v -1.004885 -0.924976 -0.183010
v 0.977203 -0.924976 -0.184539
v -1.122912 -1.428349 0.220338
v 1.199598 -1.458257 0.185364
v 1.085773 -0.960036 0.073335
v 1.113454 -0.343385 -0.000000
v 1.091304 0.278677 0.058442
v 1.113454 0.889916 -0.000000
v -1.209056 -0.930127 0.109837
v -1.242953 -0.308325 -0.000000
v -1.242953 0.308325 0.106776
v -1.242953 0.924976 -0.000000
vt 0.059944 0.495441
vt 0.082406 0.034849
vt 0.413414 0.591690
vt 0.093014 0.590901
vt 0.424090 0.693008
vt 0.083862 0.694253
vt 0.418050 0.793775
vt 0.095181 0.795836
vt 0.426341 0.890338
vt 0.094977 0.895532
vt 0.448009 0.964444
vt 0.288748 0.152651
vt 0.129177 0.121329
vt 0.265463 0.129736
vt 0.121750 0.105275
vt 0.270494 0.113668
vt 0.116444 0.086793
vt 0.265514 0.095046
vt 0.112705 0.068776
vt 0.265239 0.077888
vt 0.073977 0.057132
vt 0.075916 0.082582
vt 0.080392 0.104663
vt 0.104347 0.125468
vt 0.008665 0.586561
vt -0.012882 0.695609
vt 0.015935 0.800158
vt 0.006392 0.907009
vt 0.295928 0.137290
vt 0.057925 0.977215
vt 0.316648 0.119072
vt 0.306872 0.096466
vt 0.302468 0.071980
vt 0.280829 0.052340
vt 0.506261 0.895499
vt 0.121992 0.142043
vt 0.495557 0.791448
vt 0.508976 0.689212
vt 0.491061 0.586269
vt 0.452872 0.497863
vn 0.014522 -0.272483 0.962051
vn 0.014522 -0.272483 0.962051
vn 0.012084 -0.071278 0.997383
vn 0.012003 -0.065124 0.997805
vn 0.010662 0.006352 0.999923
vn 0.010682 0.004663 0.999932
vn 0.012090 0.000250 0.999927
vn 0.012091 -0.000197 0.999927
vn 0.007150 0.187189 0.982298
vn 0.006928 0.189749 0.981808
vn 0.001978 0.246338 0.969182
vn 0.001978 0.246338 0.969182
vn 0.005422 0.675297 -0.737526
vn 0.005422 0.675297 -0.737526
vn -0.002990 0.324093 -0.946020
vn -0.002850 0.330571 -0.943777
vn -0.012117 -0.001105 -0.999926
vn -0.012117 -0.000634 -0.999926
vn -0.006388 0.007178 -0.999954
vn -0.006371 0.006823 -0.999956
vn -0.006371 -0.394430 -0.918904
vn -0.006341 -0.393044 -0.919498
vn -0.010951 -0.598572 -0.800994
vn -0.010951 -0.598572 -0.800994
vn 0.947713 0.258572 0.187029
vn 0.910266 -0.071081 -0.407877
vn 0.998906 0.035692 0.030230
vn 0.922860 0.062005 0.380111
vn 0.915610 -0.004261 -0.402044
vn 0.993027 -0.007756 -0.117635
vn 0.921674 0.000567 0.387964
vn 0.918550 -0.003837 -0.395287
vn 0.995742 -0.000279 0.092178
vn 0.921651 0.000094 0.388019
vn 0.917781 -0.052728 -0.393571
vn 0.990961 -0.007767 -0.133922
vn 0.921053 -0.011035 0.389281
vn 0.965372 -0.062965 0.253165
vn -0.907899 -0.065136 0.414098
vn -0.985264 -0.050770 0.163330
vn -0.770292 -0.118660 -0.626554
vn -0.733104 0.067090 0.676799
vn -0.949535 -0.006609 -0.313592
vn -0.752774 -0.006757 -0.658244
vn -0.734641 -0.017965 0.678218
vn -0.945926 -0.000633 0.324382
vn -0.731567 -0.001479 -0.681768
vn -0.734760 -0.000000 0.678328
vn -0.931440 -0.004071 -0.363872
vn -0.732031 -0.086103 -0.675808
vn -0.732604 0.076540 0.676338
vn -0.860832 -0.168147 0.480307
s 1
g pCube1
usemtl lambert2SG
f 19/1/1 20/40/2 2/3/3 1/4/4
f 1/4/4 2/3/3 4/5/5 3/6/6
f 3/6/6 4/5/5 6/7/7 5/8/8
f 5/8/8 6/7/7 8/9/9 7/10/10
f 7/10/10 8/9/9 10/11/11 9/30/12
s 2
f 9/12/13 10/36/14 12/13/15 11/14/16
f 11/14/16 12/13/15 14/15/17 13/16/18
f 13/16/18 14/15/17 16/17/19 15/18/20
f 15/18/20 16/17/19 18/19/21 17/20/22
f 17/20/22 18/19/21 20/2/23 19/34/24
s 3
f 20/2/25 18/19/26 21/21/27
f 20/40/25 21/39/27 2/3/28
f 21/21/27 18/19/26 16/17/29 22/22/30
f 2/3/28 21/39/27 22/38/30 4/5/31
f 22/22/30 16/17/29 14/15/32 23/23/33
f 4/5/31 22/38/30 23/37/33 6/7/34
f 23/23/33 14/15/32 12/13/35 24/24/36
f 6/7/34 23/37/33 24/35/36 8/9/37
f 24/24/36 12/13/35 10/36/38
f 8/9/37 24/35/36 10/11/38
s 4
f 19/34/39 25/33/40 17/20/41
f 19/1/39 1/4/42 25/25/40
f 17/20/41 25/33/40 26/32/43 15/18/44
f 25/25/40 1/4/42 3/6/45 26/26/43
f 15/18/44 26/32/43 27/31/46 13/16/47
f 26/26/43 3/6/45 5/8/48 27/27/46
f 13/16/47 27/31/46 28/29/49 11/14/50
f 27/27/46 5/8/48 7/10/51 28/28/49
f 11/14/50 28/29/49 9/12/52
f 28/28/49 7/10/51 9/30/52
