# This file uses centimeters as units for non-parametric coordinates.

mtllib prismwh.mtl
g default
v -3.417139 0.000000 2.413947
v -3.417139 0.000000 7.355798
v 0.862630 0.000000 4.884873
v -3.417139 2.618353 2.413947
v -3.417139 2.618353 7.355798
v 0.862630 2.618353 4.884873
vt 0.421875 0.020934
vt 0.421875 0.291566
vt 0.656250 0.156250
vt 0.375000 0.312500
vt 0.458333 0.312500
vt 0.541667 0.312500
vt 0.625000 0.312500
vt 0.375000 0.688440
vt 0.458333 0.688440
vt 0.541667 0.688440
vt 0.625000 0.688440
vt 0.421875 0.708434
vt 0.421875 0.979066
vt 0.656250 0.843750
vn -1.000000 0.000000 -0.000000
vn -1.000000 0.000000 -0.000000
vn -1.000000 0.000000 -0.000000
vn -1.000000 0.000000 -0.000000
vn 0.500000 0.000000 0.866025
vn 0.500000 0.000000 0.866025
vn 0.500000 0.000000 0.866025
vn 0.500000 0.000000 0.866025
vn 0.500000 0.000000 -0.866025
vn 0.500000 0.000000 -0.866025
vn 0.500000 0.000000 -0.866025
vn 0.500000 0.000000 -0.866025
vn 0.000000 -1.000000 0.000000
vn 0.000000 -1.000000 0.000000
vn 0.000000 -1.000000 0.000000
vn 0.000000 1.000000 0.000000
vn 0.000000 1.000000 0.000000
vn 0.000000 1.000000 0.000000
s off
g pPrism1
usemtl initialShadingGroup
f 1/4/1 2/5/2 5/9/3 4/8/4
f 2/5/5 3/6/6 6/10/7 5/9/8
f 3/6/9 1/7/10 4/11/11 6/10/12
f 1/1/13 3/3/14 2/2/15
f 4/13/16 5/12/17 6/14/18
